<?xml version="1.0" encoding="UTF-8" standalone="no"?>
<!-- Created with Inkscape (http://www.inkscape.org/) -->

<svg
   width="96.999992mm"
   height="37.000004mm"
   viewBox="0 0 96.999992 37.000003"
   version="1.1"
   id="svg1"
   xml:space="preserve"
   sodipodi:docname="logoONLY.svg"
   inkscape:version="1.4.2 (f4327f4, 2025-05-13)"
   xmlns:inkscape="http://www.inkscape.org/namespaces/inkscape"
   xmlns:sodipodi="http://sodipodi.sourceforge.net/DTD/sodipodi-0.dtd"
   xmlns="http://www.w3.org/2000/svg"
   xmlns:svg="http://www.w3.org/2000/svg"><sodipodi:namedview
     id="namedview1"
     pagecolor="#ffffff"
     bordercolor="#000000"
     borderopacity="0.25"
     inkscape:showpageshadow="2"
     inkscape:pageopacity="0.0"
     inkscape:pagecheckerboard="0"
     inkscape:deskcolor="#d1d1d1"
     inkscape:document-units="mm"
     inkscape:zoom="3.5432348"
     inkscape:cx="183.30707"
     inkscape:cy="69.851425"
     inkscape:window-width="1920"
     inkscape:window-height="1009"
     inkscape:window-x="-8"
     inkscape:window-y="-8"
     inkscape:window-maximized="1"
     inkscape:current-layer="svg1" /><defs
     id="defs1" /><g
     id="layer1"
     transform="translate(-1.5,-6.4999999)"><path
       id="path38"
       style="baseline-shift:baseline;display:inline;overflow:visible;vector-effect:none;fill:#808080;stroke-linecap:round;stroke-linejoin:round;enable-background:accumulate;stop-color:#000000;stop-opacity:1;opacity:1"
       d="M 39.982406 6.4999999 A 3.5 3.5 0 0 0 37.513822 7.5371459 L 25.122847 20.050594 L 12.462638 7.5138915 A 3.50035 3.50035 0 0 0 6.5002116 10.000045 L 6.5002116 36.500236 L 5.0000448 36.500236 A 3.5 3.5 0 0 0 1.5 39.999764 A 3.5 3.5 0 0 0 5.0000448 43.499809 L 10.000256 43.499809 A 3.5 3.5 0 0 0 10.457076 43.469836 A 3.5 3.5 0 0 0 13.499784 39.999764 L 13.499784 18.390747 L 22.685787 27.486316 A 3.50035 3.50035 0 0 0 27.634839 27.463061 L 42.486129 12.462943 A 3.5 3.5 0 0 0 42.462874 7.5138915 A 3.5 3.5 0 0 0 39.982406 6.4999999 z M 65 6.4999999 A 3.5 3.5 0 0 0 62.525216 7.5252603 L 47.525614 22.525378 A 3.50035 3.50035 0 0 0 47.525614 27.47443 L 62.525216 42.474548 A 3.5 3.5 0 0 0 62.680245 42.610457 A 3.5 3.5 0 0 0 62.854395 42.763419 A 3.5 3.5 0 0 0 63.036812 42.88796 A 3.5 3.5 0 0 0 63.239901 43.023869 A 3.5 3.5 0 0 0 63.408366 43.108618 A 3.5 3.5 0 0 0 63.653312 43.229541 A 3.5 3.5 0 0 0 63.836247 43.293103 A 3.5 3.5 0 0 0 64.088428 43.378369 A 3.5 3.5 0 0 0 64.27653 43.41661 A 3.5 3.5 0 0 0 65 43.499809 L 70.000212 43.499809 A 3.5 3.5 0 0 0 73.500256 39.999764 A 3.5 3.5 0 0 0 70.000212 36.500236 L 66.449524 36.500236 L 54.949451 25.000163 L 67.474784 12.474829 A 3.5 3.5 0 0 0 67.474784 7.5252603 A 3.5 3.5 0 0 0 65 6.4999999 z M 80.000118 6.4999999 A 3.50035 3.50035 0 0 0 77.525334 7.5252603 L 67.525427 17.525167 A 3.50035 3.50035 0 0 0 66.500167 19.999951 L 66.500167 27.499752 A 3.50035 3.50035 0 0 0 70.000212 30.999796 L 76.051005 30.999796 L 87.52524 42.474548 A 3.5 3.5 0 0 0 87.680269 42.610457 A 3.5 3.5 0 0 0 87.854936 42.763419 A 3.5 3.5 0 0 0 88.026501 42.881242 A 3.5 3.5 0 0 0 88.241475 43.024902 A 3.5 3.5 0 0 0 88.393921 43.101383 A 3.5 3.5 0 0 0 88.653337 43.229541 A 3.5 3.5 0 0 0 88.836271 43.293103 A 3.5 3.5 0 0 0 89.088452 43.378369 A 3.5 3.5 0 0 0 89.276554 43.41661 A 3.5 3.5 0 0 0 90.000024 43.499809 L 95.000236 43.499809 A 3.5 3.5 0 0 0 98.499764 39.999764 A 3.5 3.5 0 0 0 95.000236 36.500236 L 91.449548 36.500236 L 82.449064 27.499752 L 89.974703 19.97463 A 3.50035 3.50035 0 0 0 89.974703 15.025578 L 82.474386 7.5252603 A 3.50035 3.50035 0 0 0 80.000118 6.4999999 z M 80.000118 14.949097 L 82.550867 17.499845 L 76.051005 24.000224 L 73.500256 24.000224 L 73.500256 21.449475 L 80.000118 14.949097 z M 40.000492 21.501151 A 3.50035 3.50035 0 0 0 37.525191 22.525378 L 22.52559 37.525496 A 3.5 3.5 0 0 0 22.52559 42.474548 A 3.5 3.5 0 0 0 27.474642 42.474548 L 36.499931 33.449259 L 36.499931 39.999764 A 3.5 3.5 0 0 0 39.543156 43.469836 A 3.5 3.5 0 0 0 39.999976 43.499809 L 45.000187 43.499809 A 3.5 3.5 0 0 0 48.500232 39.999764 A 3.5 3.5 0 0 0 45.000187 36.500236 L 43.50002 36.500236 L 43.50002 25.000163 A 3.50035 3.50035 0 0 0 41.339945 21.767802 A 3.50035 3.50035 0 0 0 40.000492 21.501151 z " /></g></svg>
