<?xml version="1.0" encoding="UTF-8" standalone="no"?>
<svg
   xmlns:dc="http://purl.org/dc/elements/1.1/"
   xmlns:cc="http://creativecommons.org/ns#"
   xmlns:rdf="http://www.w3.org/1999/02/22-rdf-syntax-ns#"
   xmlns:svg="http://www.w3.org/2000/svg"
   xmlns="http://www.w3.org/2000/svg"
   xmlns:sodipodi="http://sodipodi.sourceforge.net/DTD/sodipodi-0.dtd"
   xmlns:inkscape="http://www.inkscape.org/namespaces/inkscape"
   width="214.80728"
   height="120.34376"
   viewBox="0 0 56.834425 31.840953"
   version="1.1"
   id="svg34"
   inkscape:version="1.0.1 (c497b03c, 2020-09-10)"
   sodipodi:docname="swe.svg">
  <defs
     id="defs28">
    <clipPath
       id="clip4">
      <path
         d="M 77.761719,251 H 104 v 32 H 77.761719 Z m 0,0"
         id="path803" />
    </clipPath>
  </defs>
  <sodipodi:namedview
     id="base"
     pagecolor="#00ffff"
     bordercolor="#666666"
     borderopacity="1.0"
     inkscape:pageopacity="0"
     inkscape:pageshadow="2"
     inkscape:zoom="0.35"
     inkscape:cx="255.97507"
     inkscape:cy="208.74331"
     inkscape:document-units="px"
     inkscape:current-layer="layer1"
     inkscape:document-rotation="0"
     showgrid="false"
     units="px"
     lock-margins="true"
     fit-margin-top="0.5"
     fit-margin-left="0.5"
     fit-margin-right="0.5"
     fit-margin-bottom="0.5"
     inkscape:window-width="1440"
     inkscape:window-height="874"
     inkscape:window-x="0"
     inkscape:window-y="26"
     inkscape:window-maximized="0" />
  <metadata
     id="metadata31">
    <rdf:RDF>
      <cc:Work
         rdf:about="">
        <dc:format>image/svg+xml</dc:format>
        <dc:type
           rdf:resource="http://purl.org/dc/dcmitype/StillImage" />
        <dc:title></dc:title>
      </cc:Work>
    </rdf:RDF>
  </metadata>
  <g
     inkscape:label="Layer 1"
     inkscape:groupmode="layer"
     id="layer1"
     transform="translate(-38.106596,-92.936666)">
    <g
       id="g6335"
       transform="translate(-8.2437186,-7.0191419)">
      <path
         style="fill:#5c5178;fill-opacity:1;fill-rule:nonzero;stroke:none;stroke-width:0.352778"
         d="m 70.669933,113.35309 c -0.06477,0.113 -0.137805,0.19431 -0.21911,0.24392 -0.0813,0.0496 -0.183278,0.073 -0.305922,0.073 -0.137805,0 -0.288011,-0.0427 -0.451996,-0.12815 -0.16261,-0.0854 -0.352778,-0.18053 -0.573264,-0.28664 -0.21911,-0.1061 -0.47818,-0.20257 -0.775836,-0.28663 -0.29628,-0.0854 -0.644924,-0.12953 -1.043174,-0.12953 -0.325219,0 -0.62012,0.0386 -0.884704,0.11713 -0.264583,0.0772 -0.487824,0.18741 -0.672482,0.32935 -0.183279,0.14194 -0.323836,0.30868 -0.421679,0.50023 -0.09646,0.19155 -0.146071,0.39687 -0.146071,0.61736 0,0.29214 0.08957,0.53743 0.268718,0.73174 0.179144,0.19568 0.414789,0.36518 0.70831,0.50712 0.293522,0.14194 0.627006,0.27009 1.000457,0.38447 0.374826,0.11438 0.757922,0.23565 1.147904,0.36656 0.391364,0.12953 0.77308,0.28112 1.147907,0.45199 0.374826,0.17088 0.708311,0.38034 1.001832,0.62839 0.292146,0.24804 0.529167,0.54846 0.708314,0.90399 0.179145,0.35278 0.267339,0.78273 0.267339,1.28709 0,0.58567 -0.104733,1.12861 -0.31695,1.62333 -0.212217,0.49747 -0.520897,0.9288 -0.927417,1.29535 -0.407899,0.36656 -0.913642,0.65044 -1.519978,0.85439 -0.606337,0.20395 -1.300869,0.30592 -2.082215,0.30592 -0.431327,0 -0.848871,-0.0386 -1.25126,-0.11713 -0.402386,-0.0772 -0.785481,-0.1819 -1.147904,-0.31695 -0.362426,-0.13367 -0.700045,-0.2949 -1.01286,-0.48231 -0.314191,-0.18604 -0.592554,-0.38999 -0.836468,-0.61047 l 0.610471,-1.00184 c 0.07304,-0.12126 0.163985,-0.21635 0.274229,-0.28663 0.110243,-0.0689 0.246669,-0.10335 0.409278,-0.10335 0.170875,0 0.340374,0.0551 0.507118,0.16536 0.166741,0.10887 0.361047,0.22876 0.585664,0.35967 0.224621,0.13091 0.494718,0.2508 0.811668,0.35967 0.318325,0.11024 0.712445,0.16536 1.185111,0.16536 0.389985,0 0.728983,-0.0469 1.012857,-0.14056 0.283876,-0.0923 0.520901,-0.22186 0.708314,-0.38447 0.187413,-0.16261 0.325215,-0.34864 0.414789,-0.55535 0.08957,-0.20808 0.135047,-0.42995 0.135047,-0.66559 0,-0.31695 -0.09095,-0.5774 -0.270094,-0.78135 -0.177768,-0.20257 -0.416168,-0.37758 -0.713824,-0.52503 -0.296281,-0.14745 -0.6339,-0.27699 -1.012861,-0.39137 -0.377581,-0.11299 -0.763432,-0.23564 -1.153417,-0.36517 -0.391361,-0.13092 -0.775836,-0.28112 -1.154794,-0.452 -0.378961,-0.17088 -0.715204,-0.38861 -1.01286,-0.65319 -0.297656,-0.26459 -0.534677,-0.58705 -0.713821,-0.96463 -0.179148,-0.37896 -0.268718,-0.8406 -0.268718,-1.3863 0,-0.4961 0.09922,-0.96876 0.299032,-1.41663 0.198438,-0.44648 0.491959,-0.84198 0.879189,-1.18373 0.385851,-0.34176 0.862651,-0.61185 1.427646,-0.81167 0.566374,-0.19843 1.219567,-0.29903 1.960951,-0.29903 0.837847,0 1.598524,0.13367 2.282031,0.40239 0.683507,0.26871 1.258147,0.63527 1.721168,1.09967 z m 0,0"
         id="path2821" />
      <path
         style="fill:#5c5178;fill-opacity:1;fill-rule:nonzero;stroke:none;stroke-width:0.352778"
         d="m 71.866069,111.09311 h 2.075328 c 0.203948,0 0.373447,0.0524 0.508494,0.15297 0.133671,0.10197 0.220486,0.22186 0.261828,0.36104 l 2.075325,7.25262 c 0.08268,0.33348 0.152964,0.65594 0.213596,0.97014 0.06064,0.31419 0.115757,0.62425 0.165365,0.9343 0.0813,-0.31005 0.165364,-0.62011 0.250804,-0.9343 0.08544,-0.3142 0.181899,-0.63666 0.288007,-0.97014 l 2.337153,-7.28983 c 0.04272,-0.14607 0.125402,-0.26596 0.252183,-0.36104 0.125402,-0.0923 0.278363,-0.13918 0.457507,-0.13918 h 1.147907 c 0.186034,0 0.345888,0.0469 0.475425,0.13918 0.130912,0.0951 0.216351,0.21497 0.256314,0.36104 l 2.272383,7.28983 c 0.08819,0.33348 0.177768,0.6587 0.267342,0.97565 0.08957,0.31695 0.170875,0.63114 0.243911,0.9412 0.09784,-0.61874 0.237024,-1.25815 0.416168,-1.91685 l 2.111156,-7.25262 c 0.04961,-0.14745 0.139182,-0.26872 0.268715,-0.36656 0.130915,-0.0978 0.290766,-0.14745 0.476803,-0.14745 h 1.977486 l -3.992178,12.45471 h -2.087729 c -0.243914,0 -0.416168,-0.15847 -0.512628,-0.4768 l -2.477714,-7.75284 c -0.06615,-0.21911 -0.125402,-0.43684 -0.177768,-0.65319 -0.05374,-0.21498 -0.100594,-0.43271 -0.140561,-0.65319 -0.08957,0.43959 -0.199813,0.87919 -0.329349,1.31878 l -2.519053,7.74044 c -0.09095,0.31833 -0.2825,0.4768 -0.577398,0.4768 h -1.991265 z m 0,0"
         id="path2823" />
      <path
         style="fill:#5c5178;fill-opacity:1;fill-rule:nonzero;stroke:none;stroke-width:0.352778"
         d="m 96.905026,112.80326 c -0.952225,0 -1.701878,0.27285 -2.246203,0.81717 -0.545705,0.54571 -0.892969,1.3119 -1.03904,2.29582 h 6.191525 c 0,-0.4396 -0.06339,-0.84887 -0.190172,-1.22646 -0.125398,-0.37896 -0.310056,-0.70831 -0.555346,-0.98943 -0.243914,-0.28112 -0.547085,-0.50023 -0.909507,-0.6587 -0.362423,-0.15848 -0.779971,-0.2384 -1.251257,-0.2384 m -0.04961,-1.90445 c 0.766191,0 1.473122,0.12402 2.124935,0.37207 0.650434,0.24805 1.212669,0.61185 1.685339,1.09278 0.47129,0.48094 0.8406,1.06798 1.10519,1.76389 0.2632,0.69591 0.39549,1.48828 0.39549,2.37436 0,0.4079 -0.0441,0.68075 -0.13367,0.81856 -0.0896,0.1378 -0.25218,0.20808 -0.48782,0.20808 h -7.998136 c 0.03306,0.70831 0.143316,1.32016 0.329354,1.83693 0.187413,0.51814 0.438217,0.94671 0.751028,1.28846 0.314195,0.34175 0.689021,0.59669 1.123104,0.76344 0.436837,0.16674 0.923286,0.24942 1.460719,0.24942 0.512631,0 0.95498,-0.0593 1.331185,-0.17639 0.372072,-0.11851 0.698666,-0.24805 0.975653,-0.39136 0.276984,-0.14194 0.512623,-0.27148 0.708313,-0.38999 0.19568,-0.11851 0.37482,-0.17776 0.53743,-0.17776 0.21084,0 0.37345,0.0827 0.48783,0.24529 l 0.74552,0.96325 c -0.31006,0.36655 -0.66008,0.67661 -1.05007,0.92879 -0.39136,0.25219 -0.80753,0.45751 -1.245744,0.61599 -0.439597,0.15985 -0.891593,0.27285 -1.35599,0.34175 -0.463021,0.0689 -0.915017,0.10473 -1.354614,0.10473 -0.862651,0 -1.66329,-0.14469 -2.399164,-0.43408 -0.737249,-0.28801 -1.375283,-0.71383 -1.916849,-1.27469 -0.541571,-0.56224 -0.964629,-1.25815 -1.270551,-2.0891 -0.304549,-0.82958 -0.45751,-1.78594 -0.45751,-2.86908 0,-0.86265 0.136426,-1.6688 0.409278,-2.41708 0.272849,-0.74965 0.664214,-1.40146 1.172711,-1.95405 0.508494,-0.55398 1.125855,-0.99082 1.854839,-1.3119 0.72898,-0.32108 1.551672,-0.48231 2.4722,-0.48231"
         id="path2825" />
      <path
         style="fill:#d9c551;fill-opacity:1;fill-rule:nonzero;stroke:none;stroke-width:0.352778"
         d="m 50.569868,102.72566 c 0.136426,0.24392 0.286632,0.47956 0.407899,0.72899 0.265961,0.54156 0.305925,1.10656 0.114377,1.6812 -0.04272,0.12816 -0.09371,0.25081 -0.150206,0.37069 l 1.911339,1.01424 c 0.682129,-0.96738 1.803851,-1.60403 3.07716,-1.60817 1.220943,-0.004 2.306835,0.57051 3.002746,1.46485 l 1.920984,-1.06659 c -0.03168,-0.0744 -0.06477,-0.14883 -0.09095,-0.22738 -0.14883,-0.4396 -0.157095,-0.8847 -0.02067,-1.33119 0.09784,-0.3197 0.260452,-0.60771 0.429947,-0.89297 0.132292,-0.22324 0.264584,-0.44786 0.385851,-0.67799 0.08682,-0.16123 0.133671,-0.339 0.125402,-0.52503 -0.01101,-0.24529 -0.124023,-0.44511 -0.290766,-0.61185 -0.388606,-0.39688 -0.864027,-0.66008 -1.378039,-0.85439 -0.126777,-0.0482 -0.263204,-0.0689 -0.394116,-0.10197 -0.07579,0 -0.152964,0 -0.227376,0.001 -0.05788,0.0152 -0.117136,0.0275 -0.173633,0.0468 -0.192928,0.0662 -0.341754,0.19293 -0.451997,0.35829 -0.122647,0.1819 -0.23289,0.37207 -0.338998,0.565 -0.152961,0.27423 -0.299036,0.55397 -0.489204,0.80615 -0.381716,0.50436 -0.888835,0.79099 -1.511706,0.88057 -0.439596,0.062 -0.875055,0.0524 -1.306382,-0.0551 -0.552595,-0.13643 -0.983919,-0.452 -1.298112,-0.92191 -0.176389,-0.26596 -0.322461,-0.5526 -0.489203,-0.82683 -0.100597,-0.16674 -0.201194,-0.33486 -0.319705,-0.4892 -0.14056,-0.18603 -0.332107,-0.30455 -0.570508,-0.33211 l -0.01654,-0.01 c -0.06201,0 -0.125402,0 -0.188791,0.001 -0.05788,0.011 -0.114377,0.0207 -0.173633,0.0317 -0.319705,0.0703 -0.610471,0.21636 -0.891591,0.38172 -0.271473,0.1571 -0.529166,0.33211 -0.742762,0.56499 -0.279742,0.30317 -0.361046,0.6463 -0.188791,1.02664 0.09371,0.20947 0.214974,0.40652 0.327972,0.60772"
         id="path2827" />
      <path
         style="fill:#5c5178;fill-opacity:1;fill-rule:nonzero;stroke:none;stroke-width:0.352778"
         d="m 65.290072,107.73759 c -0.114377,-0.37345 -0.348643,-0.6215 -0.744142,-0.67937 -0.190168,-0.0289 -0.384471,-0.0303 -0.577395,-0.0303 -0.38034,0 -0.763436,0.0331 -1.145152,-0.0207 -0.463021,-0.0661 -0.873675,-0.24667 -1.214049,-0.57051 -0.07579,-0.0717 -0.144696,-0.14607 -0.210842,-0.22324 l -1.944412,1.079 c 0.173634,0.42995 0.271473,0.89986 0.272853,1.3932 0.0041,1.84382 -1.305003,3.37895 -3.046843,3.72208 v 2.2779 c 0.545701,0.11989 0.996322,0.4079 1.34221,0.88057 0.205327,0.28111 0.356912,0.59255 0.531922,0.89158 0.100598,0.17226 0.209461,0.34314 0.333484,0.50161 0.144695,0.18742 0.343133,0.29903 0.584288,0.32108 0.157096,0.0138 0.31006,-0.008 0.460266,-0.0537 0.491959,-0.15434 0.930176,-0.41203 1.328427,-0.73587 0.09784,-0.0799 0.184658,-0.17226 0.263207,-0.2701 0.24667,-0.30317 0.267339,-0.63941 0.103354,-0.98529 -0.09233,-0.19706 -0.209462,-0.38172 -0.315571,-0.57189 -0.133671,-0.23702 -0.281121,-0.46715 -0.401009,-0.71107 -0.263208,-0.53468 -0.308681,-1.09278 -0.126781,-1.66329 0.14056,-0.43684 0.363802,-0.82958 0.660082,-1.17822 0.310056,-0.36381 0.694531,-0.61185 1.160307,-0.72209 0.358288,-0.0868 0.72347,-0.0854 1.090027,-0.0785 0.248049,0.004 0.500229,0.005 0.748274,-0.011 0.253559,-0.0179 0.482314,-0.10611 0.651813,-0.31144 0.104733,-0.1254 0.169499,-0.27285 0.212217,-0.42994 0.09922,-0.36105 0.107488,-0.73174 0.09233,-1.10105 -0.0096,-0.24392 -0.03721,-0.48645 -0.108864,-0.71934"
         id="path2829" />
      <g
         clip-path="url(#clip4)"
         clip-rule="nonzero"
         id="g2833"
         transform="matrix(0.35277778,0,0,0.35277778,19.05,17.538099)">
        <path
           style="fill:#a8a8a8;fill-opacity:1;fill-rule:nonzero;stroke:none"
           d="m 103.6875,269.07812 c -5.488281,-0.45312 -9.824219,-5.03125 -9.839844,-10.64062 -0.0039,-1.24609 0.210938,-2.44141 0.601563,-3.55469 l -5.722657,-3.03515 -0.02734,0.0352 c -0.746094,0.78125 -1.632813,1.33594 -2.671875,1.64453 -0.8125,0.24219 -1.644532,0.32422 -2.488282,0.32032 -0.871093,0.004 -1.75,-0.0312 -2.621093,-0.0156 -0.359375,0.008 -0.726563,0.0703 -1.074219,0.16016 -0.953125,0.25 -1.484375,0.92968 -1.769531,1.83984 -0.28125,0.91406 -0.320313,1.85547 -0.3125,2.80859 0.0078,0.85938 0.07422,1.71094 0.335937,2.53516 0.332032,1.04297 1.003906,1.72266 2.105469,1.88672 0.511719,0.0742 1.03125,0.0859 1.546875,0.082 1.117188,-0.004 2.234375,-0.10156 3.351562,0.0586 1.203126,0.17969 2.289063,0.625 3.210938,1.4336 1.207031,1.0625 2.023438,2.39062 2.558594,3.89453 0.480468,1.35156 0.5,2.71094 0.04297,4.07422 -0.269531,0.80078 -0.675781,1.53515 -1.101562,2.2539 -0.386719,0.65625 -0.773438,1.3086 -1.136719,1.98047 -0.226562,0.41407 -0.359375,0.86719 -0.375,1.34375 -0.02734,0.75782 0.308594,1.36719 0.804688,1.90625 0.609375,0.65625 1.351562,1.14453 2.117187,1.58594 0.851563,0.48438 1.722656,0.91797 2.703125,1.08984 0.957031,0.16407 1.785157,-0.0781 2.421875,-0.83593 0.277344,-0.32813 0.519532,-0.69532 0.738282,-1.0625 0.5,-0.84766 0.941406,-1.72266 1.460937,-2.5586 0.890625,-1.43359 2.13671,-2.42578 3.79296,-2.85547 0.44922,-0.11718 0.89844,-0.1875 1.34767,-0.23046 z m 0,0"
           id="path2831" />
      </g>
      <path
         style="fill:#211e1e;fill-opacity:1;fill-rule:nonzero;stroke:none;stroke-width:0.352778"
         d="m 63.705328,126.05034 -0.03996,0.0468 -0.05237,0.0152 -0.07166,-0.0234 c -0.02618,-0.0165 -0.0565,-0.0344 -0.09095,-0.0537 -0.03583,-0.0207 -0.07717,-0.0386 -0.125402,-0.0551 -0.04686,-0.0152 -0.103354,-0.0234 -0.168124,-0.0234 -0.05925,0 -0.110243,0.007 -0.15434,0.0207 -0.04272,0.0138 -0.07993,0.0331 -0.110243,0.0593 -0.02893,0.0248 -0.05099,0.0551 -0.06615,0.0896 -0.01379,0.0358 -0.02205,0.0744 -0.02205,0.11575 0,0.0524 0.01517,0.0978 0.0441,0.1323 0.0303,0.0358 0.07028,0.0661 0.118512,0.0909 0.04961,0.0248 0.104733,0.0482 0.16812,0.0675 0.06339,0.0193 0.126781,0.0413 0.192927,0.0634 0.06477,0.0234 0.129536,0.0496 0.192924,0.0786 0.06201,0.0303 0.118512,0.0675 0.166743,0.113 0.04961,0.0455 0.08957,0.10197 0.118513,0.16674 0.0303,0.0661 0.04547,0.14607 0.04547,0.23978 0,0.10335 -0.01792,0.19844 -0.05236,0.28801 -0.03583,0.0896 -0.08682,0.16674 -0.15434,0.23289 -0.06753,0.0661 -0.150206,0.11989 -0.24667,0.15709 -0.09784,0.0386 -0.209461,0.0579 -0.333484,0.0579 -0.07166,0 -0.143316,-0.007 -0.213596,-0.0221 -0.07028,-0.0138 -0.136427,-0.0344 -0.201197,-0.0606 -0.06477,-0.0248 -0.125398,-0.0565 -0.181899,-0.0937 -0.0565,-0.0358 -0.106108,-0.0772 -0.150206,-0.12127 l 0.124023,-0.20258 0.04134,-0.0372 0.05374,-0.0152 0.08406,0.0331 c 0.0303,0.0207 0.06615,0.0441 0.107488,0.0703 0.04272,0.0262 0.09095,0.0496 0.14745,0.0716 0.05512,0.0221 0.122647,0.0331 0.201193,0.0331 0.119892,0 0.213596,-0.0289 0.278363,-0.0868 0.06615,-0.0565 0.09922,-0.1378 0.09922,-0.24529 0,-0.0593 -0.01517,-0.10749 -0.04547,-0.14469 -0.02893,-0.0386 -0.06753,-0.0703 -0.117133,-0.0951 -0.04961,-0.0262 -0.106109,-0.0469 -0.168123,-0.0648 -0.06201,-0.0179 -0.126778,-0.0372 -0.191545,-0.0579 -0.06477,-0.0221 -0.12816,-0.0469 -0.190172,-0.0758 -0.06339,-0.0289 -0.118508,-0.0675 -0.168119,-0.11438 -0.04961,-0.0468 -0.08957,-0.10611 -0.118513,-0.17639 -0.0303,-0.0703 -0.04547,-0.1571 -0.04547,-0.26045 0,-0.0827 0.01655,-0.16399 0.04961,-0.24253 0.03305,-0.0772 0.08131,-0.14746 0.143316,-0.20809 0.06339,-0.0606 0.140561,-0.10886 0.23289,-0.14607 0.09095,-0.0358 0.197058,-0.0537 0.316949,-0.0537 0.133668,0 0.256315,0.0207 0.369313,0.062 0.112998,0.0413 0.208082,0.1006 0.288011,0.17639 z m 0,0"
         id="path2835" />
      <path
         style="fill:#211e1e;fill-opacity:1;fill-rule:nonzero;stroke:none;stroke-width:0.352778"
         d="m 64.868394,127.62957 c 0.133667,0 0.232886,-0.0441 0.297656,-0.13367 0.06339,-0.091 0.09508,-0.22186 0.09508,-0.3955 0,-0.17225 -0.03168,-0.30592 -0.09508,-0.39687 -0.06477,-0.091 -0.163989,-0.13643 -0.297656,-0.13643 -0.136427,0 -0.237025,0.0455 -0.301791,0.13781 -0.06477,0.091 -0.09784,0.22324 -0.09784,0.39549 0,0.17226 0.03305,0.30317 0.09784,0.39412 0.06477,0.091 0.165364,0.13505 0.301791,0.13505 m 0,-1.35874 c 0.118508,0 0.227375,0.0207 0.325215,0.0579 0.09784,0.04 0.180523,0.0937 0.250804,0.16537 0.0689,0.0703 0.122643,0.15709 0.15985,0.25907 0.03859,0.10335 0.0565,0.21773 0.0565,0.34451 0,0.12678 -0.01792,0.24253 -0.0565,0.34451 -0.03721,0.10335 -0.09095,0.19017 -0.15985,0.26183 -0.07028,0.0716 -0.152965,0.12677 -0.250804,0.16674 -0.09784,0.0372 -0.206707,0.0565 -0.325215,0.0565 -0.119892,0 -0.228756,-0.0193 -0.327974,-0.0565 -0.09784,-0.04 -0.181903,-0.0951 -0.250804,-0.16674 -0.07028,-0.0717 -0.124023,-0.15848 -0.16123,-0.26183 -0.03858,-0.10198 -0.05788,-0.21773 -0.05788,-0.34451 0,-0.12678 0.0193,-0.24116 0.05788,-0.34451 0.03721,-0.10198 0.09095,-0.18879 0.16123,-0.25907 0.0689,-0.0717 0.152961,-0.12541 0.250804,-0.16537 0.09922,-0.0372 0.208082,-0.0579 0.327974,-0.0579"
         id="path2837" />
      <path
         style="fill:#211e1e;fill-opacity:1;fill-rule:nonzero;stroke:none;stroke-width:0.352778"
         d="m 67.109083,126.63738 -0.03306,0.0331 -0.04823,0.0138 -0.05788,-0.0193 -0.06753,-0.04 c -0.02618,-0.0152 -0.0565,-0.0289 -0.0937,-0.0413 -0.03583,-0.0124 -0.07993,-0.0179 -0.133671,-0.0179 -0.06752,0 -0.126781,0.0124 -0.177768,0.0372 -0.05236,0.0248 -0.09508,0.0593 -0.128157,0.1061 -0.03447,0.0455 -0.05926,0.1006 -0.07579,0.16675 -0.01654,0.0648 -0.02618,0.13918 -0.02618,0.22186 0,0.0854 0.0096,0.16123 0.02755,0.22876 0.0193,0.0661 0.04548,0.12264 0.07993,0.16812 0.03447,0.0455 0.07579,0.0799 0.125402,0.10335 0.04823,0.0234 0.10473,0.0344 0.165365,0.0344 0.06201,0 0.111619,-0.007 0.150206,-0.022 0.03858,-0.0152 0.07028,-0.0317 0.09646,-0.0496 l 0.06753,-0.0496 0.06615,-0.0234 0.07028,0.0358 0.111623,0.14056 c -0.04272,0.051 -0.08957,0.0923 -0.140561,0.12677 -0.04961,0.0345 -0.101974,0.0606 -0.15572,0.0813 -0.05374,0.0207 -0.108864,0.0345 -0.16674,0.0441 -0.0565,0.008 -0.113002,0.011 -0.169499,0.011 -0.09922,0 -0.192928,-0.0179 -0.279743,-0.0551 -0.08819,-0.0372 -0.165364,-0.091 -0.23151,-0.16123 -0.06477,-0.0717 -0.117133,-0.15847 -0.15572,-0.26183 -0.03858,-0.10335 -0.0565,-0.22048 -0.0565,-0.35139 0,-0.11852 0.01654,-0.22738 0.05099,-0.32935 0.03305,-0.1006 0.08406,-0.18742 0.148826,-0.26183 0.06615,-0.073 0.147451,-0.13092 0.24529,-0.17226 0.09646,-0.0413 0.208086,-0.0634 0.334864,-0.0634 0.119891,0 0.226,0.0207 0.31557,0.0579 0.09095,0.04 0.172258,0.0951 0.243914,0.16674 z m 0,0"
         id="path2839" />
      <path
         style="fill:#211e1e;fill-opacity:1;fill-rule:nonzero;stroke:none;stroke-width:0.352778"
         d="m 67.86976,127.90518 h -0.388606 v -1.60817 h 0.388606 z m 0.05374,-2.07671 c 0,0.0331 -0.0083,0.0634 -0.02067,0.0923 l -0.05512,0.0772 -0.07855,0.0524 c -0.0303,0.0138 -0.06201,0.0207 -0.09646,0.0207 -0.03447,0 -0.06615,-0.007 -0.09508,-0.0207 l -0.07717,-0.0524 -0.05374,-0.0772 c -0.01242,-0.0289 -0.0193,-0.0593 -0.0193,-0.0923 0,-0.0358 0.0069,-0.0675 0.0193,-0.0978 l 0.05374,-0.0772 0.07717,-0.0537 c 0.02893,-0.0124 0.06064,-0.0193 0.09508,-0.0193 0.03447,0 0.06615,0.007 0.09646,0.0193 l 0.07855,0.0537 0.05512,0.0772 c 0.01242,0.0303 0.02067,0.062 0.02067,0.0978"
         id="path2841" />
      <path
         style="fill:#211e1e;fill-opacity:1;fill-rule:nonzero;stroke:none;stroke-width:0.352778"
         d="m 68.957032,126.54781 c -0.112999,0 -0.201193,0.0331 -0.264584,0.0965 -0.06477,0.0634 -0.104732,0.15434 -0.121267,0.27148 h 0.728983 c 0,-0.051 -0.0069,-0.0978 -0.02067,-0.14194 -0.01517,-0.0441 -0.03583,-0.0841 -0.06339,-0.11713 -0.02755,-0.0331 -0.06339,-0.0593 -0.107484,-0.0785 -0.0441,-0.0207 -0.09371,-0.0303 -0.151585,-0.0303 m -0.0083,-0.27698 c 0.101974,0 0.195682,0.0165 0.281121,0.0496 0.08544,0.0317 0.159851,0.0785 0.221862,0.14194 0.06201,0.062 0.108867,0.13781 0.144695,0.22876 0.03447,0.0896 0.05237,0.19292 0.05237,0.30868 0,0.0593 -0.0069,0.0992 -0.0193,0.11851 -0.01242,0.0207 -0.03583,0.0303 -0.07166,0.0303 h -0.996318 c 0.0069,0.0827 0.02205,0.15434 0.04547,0.21498 0.02205,0.0593 0.05237,0.10886 0.08957,0.14882 0.03721,0.0386 0.08268,0.0675 0.135047,0.0868 0.05099,0.0193 0.108864,0.0303 0.170879,0.0303 0.06339,0 0.117133,-0.008 0.162606,-0.0234 0.04548,-0.0138 0.08544,-0.0303 0.118512,-0.0482 0.03447,-0.0166 0.06477,-0.0331 0.08957,-0.0482 l 0.07441,-0.022 c 0.03306,0 0.0565,0.0124 0.07304,0.0358 l 0.110243,0.14056 c -0.04272,0.051 -0.09095,0.0923 -0.143316,0.12678 -0.05375,0.0345 -0.108867,0.0606 -0.166744,0.0813 -0.05926,0.0207 -0.118512,0.0345 -0.177768,0.0441 -0.06063,0.008 -0.118509,0.011 -0.17501,0.011 -0.111622,0 -0.214975,-0.0179 -0.311435,-0.0551 -0.09646,-0.0372 -0.180524,-0.0909 -0.250804,-0.16399 -0.07166,-0.073 -0.126781,-0.16261 -0.16812,-0.27009 -0.03996,-0.10749 -0.06064,-0.23013 -0.06064,-0.37207 0,-0.11024 0.01792,-0.2136 0.05375,-0.31006 0.03447,-0.0965 0.08544,-0.18052 0.151582,-0.25218 0.06615,-0.0717 0.14745,-0.12816 0.243914,-0.1695 0.09508,-0.0413 0.202572,-0.0634 0.32246,-0.0634"
         id="path2843" />
      <path
         style="fill:#211e1e;fill-opacity:1;fill-rule:nonzero;stroke:none;stroke-width:0.352778"
         d="m 70.456337,127.92998 c -0.140561,0 -0.248049,-0.04 -0.32246,-0.11851 -0.07442,-0.0786 -0.113002,-0.18741 -0.113002,-0.32659 V 126.5864 H 69.85689 l -0.05374,-0.0207 -0.02067,-0.0606 v -0.15434 l 0.257694,-0.0413 0.0813,-0.4396 0.0303,-0.0482 0.0565,-0.0179 h 0.199817 v 0.50712 h 0.429948 v 0.27561 h -0.429948 v 0.87092 c 0,0.051 0.01242,0.0896 0.03721,0.11851 0.0248,0.0276 0.05788,0.0413 0.101974,0.0413 l 0.05926,-0.008 0.04272,-0.0179 0.03168,-0.0179 0.02893,-0.008 0.02893,0.008 0.02205,0.0262 0.117133,0.18741 c -0.05788,0.0469 -0.122643,0.0827 -0.194303,0.10749 -0.07442,0.0234 -0.150206,0.0358 -0.227376,0.0358"
         id="path2845" />
      <path
         style="fill:#211e1e;fill-opacity:1;fill-rule:nonzero;stroke:none;stroke-width:0.352778"
         d="m 71.67039,128.34615 -0.0441,0.062 c -0.0193,0.0138 -0.04686,0.0207 -0.08406,0.0207 h -0.289387 l 0.301791,-0.64354 -0.650434,-1.48828 h 0.340374 l 0.07166,0.022 0.03721,0.0496 0.341754,0.83372 c 0.02205,0.0579 0.03858,0.11438 0.05237,0.17088 l 0.02755,-0.0882 0.03168,-0.0841 0.322463,-0.83234 0.04272,-0.051 0.06339,-0.0207 h 0.311435 z m 0,0"
         id="path2847" />
      <path
         style="fill:#211e1e;fill-opacity:1;fill-rule:nonzero;stroke:none;stroke-width:0.352778"
         d="m 74.134321,127.62957 c 0.133671,0 0.232889,-0.0441 0.296277,-0.13367 0.06477,-0.091 0.09646,-0.22186 0.09646,-0.3955 0,-0.17225 -0.03168,-0.30592 -0.09646,-0.39687 -0.06339,-0.091 -0.162606,-0.13643 -0.296277,-0.13643 -0.136427,0 -0.237021,0.0455 -0.301791,0.13781 -0.06615,0.091 -0.09784,0.22324 -0.09784,0.39549 0,0.17226 0.03168,0.30317 0.09784,0.39412 0.06477,0.091 0.165364,0.13505 0.301791,0.13505 m 0,-1.35874 c 0.118512,0 0.227376,0.0207 0.325218,0.0579 0.09784,0.04 0.1819,0.0937 0.250801,0.16537 0.0689,0.0703 0.122646,0.15709 0.159854,0.25907 0.03858,0.10335 0.0565,0.21773 0.0565,0.34451 0,0.12678 -0.01792,0.24253 -0.0565,0.34451 -0.03721,0.10335 -0.09095,0.19017 -0.159854,0.26183 -0.0689,0.0716 -0.152961,0.12677 -0.250801,0.16674 -0.09784,0.0372 -0.206706,0.0565 -0.325218,0.0565 -0.119888,0 -0.228756,-0.0193 -0.327974,-0.0565 -0.09784,-0.04 -0.1819,-0.0951 -0.250801,-0.16674 -0.07028,-0.0717 -0.124026,-0.15848 -0.162609,-0.26183 -0.03721,-0.10198 -0.0565,-0.21773 -0.0565,-0.34451 0,-0.12678 0.0193,-0.24116 0.0565,-0.34451 0.03858,-0.10198 0.09233,-0.18879 0.162609,-0.25907 0.0689,-0.0717 0.152961,-0.12541 0.250801,-0.16537 0.09922,-0.0372 0.208086,-0.0579 0.327974,-0.0579"
         id="path2849" />
      <path
         style="fill:#211e1e;fill-opacity:1;fill-rule:nonzero;stroke:none;stroke-width:0.352778"
         d="m 75.297387,127.90518 v -1.3174 l -0.139185,-0.022 -0.07304,-0.0317 -0.02755,-0.0661 v -0.1571 h 0.23978 v -0.11989 c 0,-0.0923 0.01379,-0.17363 0.04134,-0.24667 0.02755,-0.073 0.06753,-0.13642 0.119892,-0.18741 0.05099,-0.051 0.114377,-0.0896 0.188789,-0.11713 0.07304,-0.0275 0.157099,-0.0413 0.249424,-0.0413 0.07442,0 0.143316,0.011 0.208086,0.0303 l -0.0083,0.1943 -0.01242,0.0358 -0.02893,0.0207 -0.04134,0.01 -0.05099,0.001 c -0.04547,0 -0.08682,0.005 -0.122644,0.0152 -0.03583,0.01 -0.06615,0.0275 -0.09233,0.051 -0.0248,0.0248 -0.0441,0.0579 -0.0565,0.0978 -0.01242,0.04 -0.0193,0.0896 -0.0193,0.14883 v 0.10748 h 0.417544 v 0.27561 h -0.405144 v 1.31878 z m 0,0"
         id="path2851" />
      <path
         style="fill:#211e1e;fill-opacity:1;fill-rule:nonzero;stroke:none;stroke-width:0.352778"
         d="m 76.84492,125.63831 h 0.352778 c 0.03721,0 0.06753,0.008 0.09233,0.0262 l 0.04961,0.0689 0.385851,1.35599 c 0.0083,0.0331 0.01655,0.0689 0.0248,0.10887 0.0069,0.0386 0.01517,0.0813 0.02343,0.12402 0.0083,-0.0427 0.01792,-0.0854 0.02755,-0.12402 0.0096,-0.04 0.02067,-0.0758 0.03168,-0.10887 l 0.445103,-1.35599 0.04961,-0.0661 c 0.0248,-0.0193 0.05512,-0.0289 0.08957,-0.0289 h 0.124023 c 0.03721,0 0.06615,0.008 0.08957,0.0262 l 0.05099,0.0689 0.443727,1.35599 c 0.02342,0.0648 0.04272,0.13918 0.06063,0.22324 0.01242,-0.0813 0.02755,-0.1571 0.0441,-0.22324 l 0.38723,-1.35599 0.04685,-0.0675 c 0.0248,-0.0179 0.0565,-0.0275 0.09233,-0.0275 h 0.330729 l -0.704176,2.26687 h -0.381716 l -0.494718,-1.54891 -0.02067,-0.0648 -0.01792,-0.0717 -0.01792,0.0717 -0.02067,0.0648 -0.500228,1.54891 h -0.381717 z m 0,0"
         id="path2853" />
      <path
         style="fill:#211e1e;fill-opacity:1;fill-rule:nonzero;stroke:none;stroke-width:0.352778"
         d="m 80.824695,127.62957 c 0.133671,0 0.23289,-0.0441 0.297656,-0.13367 0.06339,-0.091 0.09646,-0.22186 0.09646,-0.3955 0,-0.17225 -0.03306,-0.30592 -0.09646,-0.39687 -0.06477,-0.091 -0.163985,-0.13643 -0.297656,-0.13643 -0.135047,0 -0.235642,0.0455 -0.301787,0.13781 -0.06477,0.091 -0.09784,0.22324 -0.09784,0.39549 0,0.17226 0.03305,0.30317 0.09784,0.39412 0.06615,0.091 0.16674,0.13505 0.301787,0.13505 m 0,-1.35874 c 0.119891,0 0.228755,0.0207 0.325219,0.0579 0.09784,0.04 0.181899,0.0937 0.250803,0.16537 0.07028,0.0703 0.122644,0.15709 0.16123,0.25907 0.03721,0.10335 0.0565,0.21773 0.0565,0.34451 0,0.12678 -0.0193,0.24253 -0.0565,0.34451 -0.03859,0.10335 -0.09095,0.19017 -0.16123,0.26183 -0.0689,0.0716 -0.152964,0.12677 -0.250803,0.16674 -0.09646,0.0372 -0.205328,0.0565 -0.325219,0.0565 -0.119888,0 -0.228752,-0.0193 -0.326595,-0.0565 -0.09922,-0.04 -0.183278,-0.0951 -0.252179,-0.16674 -0.07028,-0.0717 -0.124023,-0.15848 -0.161231,-0.26183 -0.03859,-0.10198 -0.05788,-0.21773 -0.05788,-0.34451 0,-0.12678 0.0193,-0.24116 0.05788,-0.34451 0.03721,-0.10198 0.09095,-0.18879 0.161231,-0.25907 0.0689,-0.0717 0.15296,-0.12541 0.252179,-0.16537 0.09784,-0.0372 0.206707,-0.0579 0.326595,-0.0579"
         id="path2855" />
      <path
         style="fill:#211e1e;fill-opacity:1;fill-rule:nonzero;stroke:none;stroke-width:0.352778"
         d="m 81.914725,127.90518 v -1.60817 h 0.235645 c 0.05099,0 0.08406,0.0234 0.09922,0.0689 l 0.0248,0.11989 0.08819,-0.0854 c 0.03168,-0.0262 0.06477,-0.0496 0.09922,-0.0675 0.03583,-0.0193 0.07304,-0.0345 0.112999,-0.0455 0.03996,-0.011 0.08544,-0.0166 0.132291,-0.0166 0.101974,0 0.184658,0.0276 0.250804,0.0827 0.06477,0.0551 0.112998,0.12678 0.146071,0.21911 0.0248,-0.0537 0.0565,-0.0992 0.09371,-0.13781 0.03721,-0.0386 0.07855,-0.0689 0.124022,-0.0937 0.04548,-0.0234 0.09233,-0.0413 0.143316,-0.0524 0.05099,-0.0124 0.101974,-0.0179 0.152961,-0.0179 0.08957,0 0.166744,0.0152 0.237024,0.0413 0.0689,0.0275 0.126778,0.0661 0.173634,0.11989 0.04685,0.051 0.08268,0.11438 0.107485,0.19017 0.0248,0.0758 0.03721,0.16261 0.03721,0.25907 v 1.02388 h -0.388602 v -1.02388 c 0,-0.10335 -0.02205,-0.18052 -0.06615,-0.23151 -0.04548,-0.051 -0.111623,-0.0772 -0.198438,-0.0772 -0.03859,0 -0.07579,0.007 -0.110243,0.0193 -0.03447,0.0138 -0.06339,0.0331 -0.08957,0.0593 -0.0248,0.0262 -0.04547,0.0579 -0.05926,0.0965 -0.01517,0.0386 -0.02205,0.0827 -0.02205,0.13367 v 1.02388 h -0.388606 v -1.02388 c 0,-0.10749 -0.02205,-0.18603 -0.06615,-0.23564 -0.04272,-0.0496 -0.106108,-0.073 -0.190168,-0.073 -0.0565,0 -0.107488,0.0124 -0.157096,0.0413 -0.04823,0.0276 -0.09371,0.0662 -0.136426,0.113 v 1.17822 z m 0,0"
         id="path2857" />
      <path
         style="fill:#211e1e;fill-opacity:1;fill-rule:nonzero;stroke:none;stroke-width:0.352778"
         d="m 85.231662,126.54781 c -0.111619,0 -0.199813,0.0331 -0.264583,0.0965 -0.06339,0.0634 -0.10473,0.15434 -0.122644,0.27148 h 0.731736 c 0,-0.051 -0.0083,-0.0978 -0.02205,-0.14194 -0.01379,-0.0441 -0.03447,-0.0841 -0.06339,-0.11713 -0.02755,-0.0331 -0.06339,-0.0593 -0.107488,-0.0785 -0.04272,-0.0207 -0.09371,-0.0303 -0.151585,-0.0303 m -0.0069,-0.27698 c 0.100598,0 0.194303,0.0165 0.279742,0.0496 0.08682,0.0317 0.159851,0.0785 0.221865,0.14194 0.06201,0.062 0.108864,0.13781 0.144692,0.22876 0.03447,0.0896 0.05237,0.19292 0.05237,0.30868 0,0.0593 -0.0055,0.0992 -0.0193,0.11851 -0.01242,0.0207 -0.03583,0.0303 -0.07166,0.0303 h -0.994946 c 0.0055,0.0827 0.02067,0.15434 0.0441,0.21498 0.02205,0.0593 0.05237,0.10886 0.09095,0.14882 0.03721,0.0386 0.08131,0.0675 0.133668,0.0868 0.05099,0.0193 0.108867,0.0303 0.172254,0.0303 0.06202,0 0.115757,-0.008 0.161234,-0.0234 0.04685,-0.0138 0.08544,-0.0303 0.119888,-0.0482 0.03306,-0.0166 0.06339,-0.0331 0.08957,-0.0482 l 0.07441,-0.022 c 0.03168,0 0.0565,0.0124 0.07166,0.0358 l 0.110243,0.14056 c -0.04272,0.051 -0.08957,0.0923 -0.143316,0.12678 -0.05237,0.0345 -0.108867,0.0606 -0.166744,0.0813 -0.05926,0.0207 -0.117133,0.0345 -0.177765,0.0441 -0.05926,0.008 -0.118512,0.011 -0.175013,0.011 -0.111619,0 -0.214972,-0.0179 -0.311436,-0.0551 -0.09646,-0.0372 -0.179144,-0.0909 -0.250803,-0.16399 -0.07028,-0.073 -0.126778,-0.16261 -0.16812,-0.27009 -0.03996,-0.10749 -0.06064,-0.23013 -0.06064,-0.37207 0,-0.11024 0.01792,-0.2136 0.05237,-0.31006 0.03583,-0.0965 0.08682,-0.18052 0.152964,-0.25218 0.06752,-0.0717 0.147447,-0.12816 0.243911,-0.1695 0.09508,-0.0413 0.203951,-0.0634 0.323839,-0.0634"
         id="path2859" />
      <path
         style="fill:#211e1e;fill-opacity:1;fill-rule:nonzero;stroke:none;stroke-width:0.352778"
         d="m 86.212825,127.90518 v -1.60817 h 0.237024 c 0.05099,0 0.08406,0.0234 0.09922,0.0689 l 0.02618,0.12816 c 0.03306,-0.0344 0.06615,-0.0634 0.10335,-0.0909 0.03583,-0.0276 0.07442,-0.051 0.114378,-0.0703 0.03996,-0.0207 0.08268,-0.0358 0.128157,-0.0455 0.04686,-0.011 0.09646,-0.0166 0.150209,-0.0166 0.08957,0 0.16674,0.0152 0.234266,0.0455 0.06752,0.0289 0.124022,0.0717 0.170875,0.1254 0.0441,0.0538 0.07993,0.11714 0.103353,0.19293 0.02205,0.0744 0.03447,0.15572 0.03447,0.24667 v 1.02388 h -0.38723 v -1.02388 c 0,-0.0979 -0.02205,-0.17502 -0.06615,-0.22876 -0.04547,-0.0537 -0.114377,-0.0799 -0.206706,-0.0799 -0.06615,0 -0.129533,0.0152 -0.187413,0.0441 -0.05788,0.0317 -0.114374,0.0717 -0.166741,0.1254 v 1.16307 z m 0,0"
         id="path2861" />
      <path
         style="fill:#211e1e;fill-opacity:1;fill-rule:nonzero;stroke:none;stroke-width:0.352778"
         d="m 90.233941,125.63831 v 0.33486 h -1.005967 v 0.62838 h 0.792371 v 0.32522 h -0.792371 v 0.64079 h 1.005967 v 0.33762 h -1.430404 v -2.26687 z m 0,0"
         id="path2863" />
      <path
         style="fill:#211e1e;fill-opacity:1;fill-rule:nonzero;stroke:none;stroke-width:0.352778"
         d="m 90.512304,127.90518 v -1.60817 h 0.237025 c 0.04961,0 0.08268,0.0234 0.09922,0.0689 l 0.02618,0.12816 c 0.03168,-0.0344 0.06615,-0.0634 0.101974,-0.0909 0.03583,-0.0276 0.07442,-0.051 0.114378,-0.0703 0.03996,-0.0207 0.08406,-0.0358 0.129533,-0.0455 0.04686,-0.011 0.09646,-0.0166 0.150209,-0.0166 0.08819,0 0.166741,0.0152 0.234266,0.0455 0.06752,0.0289 0.124022,0.0717 0.169499,0.1254 0.04547,0.0538 0.07993,0.11714 0.103353,0.19293 0.02343,0.0744 0.03583,0.15572 0.03583,0.24667 v 1.02388 h -0.38723 v -1.02388 c 0,-0.0979 -0.02205,-0.17502 -0.06752,-0.22876 -0.0441,-0.0537 -0.113002,-0.0799 -0.205331,-0.0799 -0.06615,0 -0.129533,0.0152 -0.187413,0.0441 -0.05925,0.0317 -0.114374,0.0717 -0.166741,0.1254 v 1.16307 z m 0,0"
         id="path2865" />
      <path
         style="fill:#211e1e;fill-opacity:1;fill-rule:nonzero;stroke:none;stroke-width:0.352778"
         d="m 92.86875,127.06044 c 0.04685,0 0.08957,-0.005 0.124023,-0.0193 0.03721,-0.0124 0.06615,-0.0303 0.08957,-0.0537 0.02342,-0.0234 0.04134,-0.0496 0.05237,-0.0827 0.01242,-0.0331 0.0193,-0.0689 0.0193,-0.10611 0,-0.0799 -0.02342,-0.14332 -0.07166,-0.18879 -0.04685,-0.0482 -0.118512,-0.0703 -0.213596,-0.0703 -0.09508,0 -0.166744,0.022 -0.214976,0.0703 -0.04685,0.0455 -0.07166,0.10886 -0.07166,0.18879 0,0.0358 0.0069,0.0717 0.0193,0.10473 0.01242,0.0317 0.0303,0.0606 0.05236,0.0841 0.0248,0.0234 0.05375,0.0413 0.08957,0.0537 0.03721,0.0138 0.07855,0.0193 0.125402,0.0193 m 0.436838,0.9164 -0.02755,-0.0758 c -0.0193,-0.0193 -0.04548,-0.0344 -0.07717,-0.0468 -0.03306,-0.011 -0.07028,-0.0193 -0.114378,-0.0248 -0.04272,-0.005 -0.08819,-0.01 -0.137806,-0.011 -0.04823,-0.003 -0.09784,-0.005 -0.150205,-0.008 -0.05099,-0.001 -0.101974,-0.005 -0.151585,-0.0124 -0.04272,0.0248 -0.07717,0.0524 -0.103354,0.0841 -0.02755,0.0331 -0.03996,0.0703 -0.03996,0.113 l 0.02067,0.0799 0.06752,0.0634 c 0.0303,0.0179 0.07028,0.0317 0.119892,0.0413 0.04961,0.01 0.108863,0.0152 0.180523,0.0152 0.07166,0 0.133668,-0.006 0.186034,-0.0165 0.05237,-0.011 0.09508,-0.0262 0.129536,-0.0455 0.03447,-0.0193 0.05788,-0.0427 0.07441,-0.0689 l 0.02342,-0.0868 m -0.436852,-1.70879 c 0.06753,0 0.133671,0.007 0.192924,0.0207 0.06064,0.0138 0.115757,0.0345 0.166744,0.062 h 0.463021 v 0.1447 c 0,0.0455 -0.02755,0.0744 -0.08268,0.0841 l -0.144695,0.0276 0.0248,0.0854 c 0.0055,0.0303 0.0083,0.0634 0.0083,0.0965 0,0.0785 -0.01654,0.15021 -0.04823,0.21498 -0.03168,0.0648 -0.07579,0.11851 -0.132291,0.16399 -0.0565,0.0455 -0.122647,0.0799 -0.199817,0.10472 -0.07717,0.0234 -0.159851,0.0358 -0.248045,0.0358 -0.06064,0 -0.119888,-0.006 -0.177768,-0.0166 -0.04961,0.0303 -0.07441,0.0634 -0.07441,0.10197 l 0.0441,0.0717 c 0.0303,0.0138 0.0689,0.0248 0.118509,0.0317 0.04961,0.007 0.104733,0.011 0.166744,0.0124 0.06339,10e-4 0.128157,0.004 0.194303,0.01 0.06477,0.004 0.129536,0.0138 0.191548,0.0262 0.06339,0.0138 0.118512,0.0345 0.168119,0.062 0.04823,0.0289 0.08957,0.0675 0.118513,0.11576 0.02893,0.0482 0.0441,0.11162 0.0441,0.18741 0,0.0717 -0.01654,0.14056 -0.05237,0.2067 -0.03447,0.0675 -0.08544,0.12678 -0.151585,0.17915 -0.06752,0.0524 -0.147447,0.0937 -0.24529,0.1254 -0.09508,0.0317 -0.206706,0.0482 -0.329349,0.0482 -0.121268,0 -0.227376,-0.011 -0.31695,-0.0344 -0.08957,-0.0234 -0.163985,-0.0551 -0.224621,-0.0951 -0.05926,-0.0386 -0.103353,-0.0841 -0.132291,-0.13505 -0.02893,-0.051 -0.0441,-0.10473 -0.0441,-0.15986 0,-0.0744 0.02343,-0.1378 0.0689,-0.18741 0.04548,-0.0524 0.106113,-0.0923 0.184658,-0.12402 -0.04134,-0.0207 -0.07441,-0.051 -0.100594,-0.0868 -0.0248,-0.0358 -0.03583,-0.0841 -0.03583,-0.14332 l 0.01101,-0.0758 0.03859,-0.0758 0.06615,-0.0717 c 0.02755,-0.0221 0.05788,-0.0413 0.0937,-0.0593 -0.08268,-0.0441 -0.146071,-0.10336 -0.191547,-0.17639 -0.04685,-0.073 -0.07028,-0.15848 -0.07028,-0.25632 0,-0.0799 0.01517,-0.15158 0.04685,-0.21635 0.03306,-0.0648 0.07717,-0.11851 0.135047,-0.16399 0.0565,-0.0455 0.122647,-0.0799 0.201193,-0.10473 0.07717,-0.0234 0.162609,-0.0358 0.254938,-0.0358"
         id="path2867" />
      <path
         style="fill:#211e1e;fill-opacity:1;fill-rule:nonzero;stroke:none;stroke-width:0.352778"
         d="m 94.341873,127.90518 h -0.392741 v -1.60817 h 0.392741 z m 0.05237,-2.07671 c 0,0.0331 -0.0069,0.0634 -0.02067,0.0923 l -0.05374,0.0772 -0.07993,0.0524 c -0.03168,0.0138 -0.06615,0.0207 -0.100598,0.0207 -0.03306,0 -0.06477,-0.007 -0.09508,-0.0207 l -0.07717,-0.0524 -0.05237,-0.0772 c -0.01242,-0.0289 -0.0193,-0.0593 -0.0193,-0.0923 0,-0.0358 0.0069,-0.0675 0.0193,-0.0978 l 0.05237,-0.0772 0.07717,-0.0537 c 0.0303,-0.0124 0.06201,-0.0193 0.09508,-0.0193 0.03447,0 0.0689,0.007 0.100598,0.0193 l 0.07993,0.0537 0.05374,0.0772 c 0.01379,0.0303 0.02067,0.062 0.02067,0.0978"
         id="path2869" />
      <path
         style="fill:#211e1e;fill-opacity:1;fill-rule:nonzero;stroke:none;stroke-width:0.352778"
         d="m 94.735993,127.90518 v -1.60817 h 0.23702 c 0.04961,0 0.08269,0.0234 0.09922,0.0689 l 0.02618,0.12816 c 0.03168,-0.0344 0.06615,-0.0634 0.101974,-0.0909 0.03721,-0.0276 0.07442,-0.051 0.115757,-0.0703 0.03996,-0.0207 0.08268,-0.0358 0.128157,-0.0455 0.04685,-0.011 0.09646,-0.0166 0.150206,-0.0166 0.08819,0 0.166744,0.0152 0.234266,0.0455 0.06753,0.0289 0.124026,0.0717 0.170878,0.1254 0.0441,0.0538 0.07855,0.11714 0.103354,0.19293 0.02205,0.0744 0.03447,0.15572 0.03447,0.24667 v 1.02388 h -0.387227 v -1.02388 c 0,-0.0979 -0.02205,-0.17502 -0.06752,-0.22876 -0.04547,-0.0537 -0.112998,-0.0799 -0.205327,-0.0799 -0.06752,0 -0.129537,0.0152 -0.187413,0.0441 -0.05788,0.0317 -0.114378,0.0717 -0.166744,0.1254 v 1.16307 z m 0,0"
         id="path2871" />
      <path
         style="fill:#211e1e;fill-opacity:1;fill-rule:nonzero;stroke:none;stroke-width:0.352778"
         d="m 97.197168,126.54781 c -0.112998,0 -0.201193,0.0331 -0.265963,0.0965 -0.06339,0.0634 -0.103349,0.15434 -0.121267,0.27148 h 0.730363 c 0,-0.051 -0.0069,-0.0978 -0.02067,-0.14194 -0.01517,-0.0441 -0.03583,-0.0841 -0.06477,-0.11713 -0.02755,-0.0331 -0.06339,-0.0593 -0.106109,-0.0785 -0.0441,-0.0207 -0.09508,-0.0303 -0.151585,-0.0303 m -0.0083,-0.27698 c 0.101977,0 0.194303,0.0165 0.281122,0.0496 0.08544,0.0317 0.15985,0.0785 0.220486,0.14194 0.06201,0.062 0.110243,0.13781 0.144691,0.22876 0.03583,0.0896 0.05237,0.19292 0.05237,0.30868 0,0.0593 -0.0055,0.0992 -0.0193,0.11851 -0.01101,0.0207 -0.03583,0.0303 -0.07028,0.0303 h -0.996322 c 0.0055,0.0827 0.02067,0.15434 0.0441,0.21498 0.02205,0.0593 0.05374,0.10886 0.09095,0.14882 0.03721,0.0386 0.08268,0.0675 0.133671,0.0868 0.05236,0.0193 0.108864,0.0303 0.172254,0.0303 0.06201,0 0.115754,-0.008 0.16123,-0.0234 0.04547,-0.0138 0.08544,-0.0303 0.119888,-0.0482 0.03305,-0.0166 0.06339,-0.0331 0.08957,-0.0482 l 0.07304,-0.022 c 0.03305,0 0.05788,0.0124 0.07303,0.0358 l 0.111623,0.14056 c -0.04272,0.051 -0.09095,0.0923 -0.144696,0.12678 -0.05374,0.0345 -0.108863,0.0606 -0.166744,0.0813 -0.05925,0.0207 -0.117132,0.0345 -0.176389,0.0441 -0.06063,0.008 -0.119888,0.011 -0.176388,0.011 -0.110244,0 -0.214973,-0.0179 -0.311436,-0.0551 -0.09508,-0.0372 -0.179144,-0.0909 -0.250804,-0.16399 -0.07028,-0.073 -0.126778,-0.16261 -0.16674,-0.27009 -0.04134,-0.10749 -0.06201,-0.23013 -0.06201,-0.37207 0,-0.11024 0.01792,-0.2136 0.05374,-0.31006 0.03583,-0.0965 0.08682,-0.18052 0.152961,-0.25218 0.06615,-0.0717 0.147451,-0.12816 0.242535,-0.1695 0.09646,-0.0413 0.203951,-0.0634 0.323839,-0.0634"
         id="path2873" />
      <path
         style="fill:#211e1e;fill-opacity:1;fill-rule:nonzero;stroke:none;stroke-width:0.352778"
         d="m 98.870107,126.54781 c -0.111622,0 -0.201192,0.0331 -0.264583,0.0965 -0.06339,0.0634 -0.104733,0.15434 -0.122647,0.27148 h 0.73036 c 0,-0.051 -0.0055,-0.0978 -0.02067,-0.14194 -0.01379,-0.0441 -0.03447,-0.0841 -0.06339,-0.11713 -0.02755,-0.0331 -0.06339,-0.0593 -0.107484,-0.0785 -0.04272,-0.0207 -0.09371,-0.0303 -0.151585,-0.0303 m -0.0069,-0.27698 c 0.101974,0 0.194303,0.0165 0.279742,0.0496 0.08544,0.0317 0.15985,0.0785 0.221862,0.14194 0.06064,0.062 0.110243,0.13781 0.144695,0.22876 0.03447,0.0896 0.05237,0.19292 0.05237,0.30868 0,0.0593 -0.0055,0.0992 -0.0193,0.11851 -0.01242,0.0207 -0.03583,0.0303 -0.07166,0.0303 h -0.994943 c 0.0055,0.0827 0.02067,0.15434 0.0441,0.21498 0.02205,0.0593 0.05237,0.10886 0.09095,0.14882 0.03721,0.0386 0.08131,0.0675 0.133671,0.0868 0.05099,0.0193 0.108864,0.0303 0.170875,0.0303 0.06339,0 0.117136,-0.008 0.162609,-0.0234 0.04685,-0.0138 0.08544,-0.0303 0.119892,-0.0482 0.03305,-0.0166 0.06339,-0.0331 0.08957,-0.0482 l 0.07304,-0.022 c 0.03305,0 0.0565,0.0124 0.07303,0.0358 l 0.110243,0.14056 c -0.04134,0.051 -0.09095,0.0923 -0.143316,0.12678 -0.05374,0.0345 -0.108863,0.0606 -0.16674,0.0813 -0.05788,0.0207 -0.117133,0.0345 -0.176389,0.0441 -0.06201,0.008 -0.119892,0.011 -0.175013,0.011 -0.112998,0 -0.216352,-0.0179 -0.312812,-0.0551 -0.09646,-0.0372 -0.179147,-0.0909 -0.250803,-0.16399 -0.07028,-0.073 -0.126782,-0.16261 -0.16812,-0.27009 -0.03997,-0.10749 -0.06064,-0.23013 -0.06064,-0.37207 0,-0.11024 0.01792,-0.2136 0.05374,-0.31006 0.03447,-0.0965 0.08544,-0.18052 0.151586,-0.25218 0.06753,-0.0717 0.14745,-0.12816 0.243914,-0.1695 0.09508,-0.0413 0.203948,-0.0634 0.323839,-0.0634"
         id="path2875" />
      <path
         style="fill:#211e1e;fill-opacity:1;fill-rule:nonzero;stroke:none;stroke-width:0.352778"
         d="m 99.852646,127.90518 v -1.60817 h 0.226004 c 0.04,0 0.0675,0.005 0.0841,0.0207 0.0152,0.0138 0.0262,0.04 0.0317,0.0758 l 0.0207,0.18189 c 0.051,-0.0965 0.11162,-0.17087 0.1819,-0.22599 0.0675,-0.0551 0.1502,-0.0827 0.24391,-0.0827 0.0744,0 0.13229,0.0166 0.17777,0.0482 l -0.0248,0.29076 -0.0234,0.04 -0.04,0.011 -0.0689,-0.007 -0.0896,-0.008 c -0.0441,0 -0.0813,0.005 -0.11438,0.0179 -0.0345,0.0124 -0.0634,0.0317 -0.0909,0.0551 -0.0262,0.0234 -0.0496,0.051 -0.0703,0.0854 -0.0207,0.0331 -0.04,0.0717 -0.0579,0.11438 v 0.99081 z m 0,0"
         id="path2877" />
      <path
         style="fill:#211e1e;fill-opacity:1;fill-rule:nonzero;stroke:none;stroke-width:0.352778"
         d="m 102.00239,126.60982 -0.0331,0.0358 -0.0441,0.01 -0.0606,-0.0152 -0.073,-0.0358 c -0.0289,-0.0138 -0.062,-0.0248 -0.0978,-0.0344 -0.0345,-0.011 -0.0772,-0.0165 -0.12677,-0.0165 -0.0758,0 -0.13643,0.0165 -0.17915,0.0482 -0.0441,0.0331 -0.0661,0.0744 -0.0661,0.12816 0,0.0345 0.0124,0.062 0.0345,0.0854 0.022,0.0248 0.0524,0.0455 0.0896,0.062 0.0372,0.0179 0.0785,0.0345 0.1254,0.0482 0.0468,0.0138 0.0951,0.0303 0.14469,0.0468 0.0482,0.0166 0.0951,0.0358 0.14332,0.0565 0.0455,0.0221 0.0882,0.0482 0.1254,0.0813 0.0372,0.0331 0.0675,0.073 0.0896,0.11851 0.0221,0.0469 0.0331,0.10197 0.0331,0.16674 0,0.0772 -0.0138,0.14883 -0.0413,0.2136 -0.0276,0.0661 -0.0689,0.12126 -0.12264,0.1695 -0.0537,0.0468 -0.12127,0.0854 -0.2012,0.11161 -0.0799,0.0262 -0.17225,0.04 -0.27698,0.04 -0.0565,0 -0.11024,-0.006 -0.16261,-0.0152 -0.0524,-0.01 -0.10335,-0.0234 -0.15158,-0.0413 -0.0496,-0.0179 -0.0937,-0.0386 -0.13505,-0.0634 -0.0413,-0.0234 -0.0772,-0.0496 -0.10886,-0.0785 l 0.0896,-0.14745 0.0413,-0.04 0.0579,-0.0152 0.0689,0.022 0.0744,0.0427 c 0.0276,0.0152 0.062,0.0317 0.0992,0.0441 0.0386,0.0138 0.0868,0.0207 0.14607,0.0207 0.0455,0 0.0841,-0.005 0.11714,-0.0165 0.0331,-0.011 0.0606,-0.0262 0.0813,-0.0427 l 0.0469,-0.062 0.0152,-0.073 c 0,-0.0372 -0.01,-0.0689 -0.0331,-0.0923 -0.022,-0.0248 -0.0524,-0.0455 -0.0896,-0.0634 -0.0358,-0.0166 -0.0785,-0.0331 -0.12678,-0.0469 -0.0469,-0.0152 -0.0965,-0.0303 -0.14607,-0.0468 -0.0496,-0.0165 -0.0978,-0.0358 -0.14469,-0.0593 -0.0482,-0.022 -0.0909,-0.0496 -0.12816,-0.0854 -0.0358,-0.0331 -0.0662,-0.0758 -0.0882,-0.12678 -0.0234,-0.0496 -0.0345,-0.11024 -0.0345,-0.18052 0,-0.0675 0.0124,-0.12954 0.04,-0.1888 0.0248,-0.0592 0.0634,-0.11162 0.113,-0.15571 0.0524,-0.0455 0.11576,-0.0799 0.19155,-0.10749 0.0758,-0.0262 0.16261,-0.04 0.26183,-0.04 0.11161,0 0.21221,0.0179 0.30316,0.0551 0.091,0.0372 0.16675,0.0854 0.22738,0.14331 z m 0,0"
         id="path2879" />
      <path
         style="fill:#5c5178;fill-opacity:1;fill-rule:nonzero;stroke:none;stroke-width:0.352778"
         d="m 72.087934,130.43388 h 0.531922 l -0.250804,-0.95636 h -0.0069 z m 0.119888,-1.2361 h 0.326595 l 0.531925,1.98024 h -0.254938 l -0.140561,-0.54432 h -0.63252 l -0.147447,0.54432 h -0.254938 z m 0,0"
         id="path2881" />
      <path
         style="fill:#5c5178;fill-opacity:1;fill-rule:nonzero;stroke:none;stroke-width:0.352778"
         d="m 73.968956,130.12658 c 0,-0.1888 -0.04961,-0.29077 -0.217731,-0.29077 -0.07579,0 -0.241155,0.0193 -0.241155,0.22738 0,0.17363 0.181899,0.20808 0.365181,0.26871 0.18052,0.0606 0.362423,0.12403 0.362423,0.41893 0,0.31281 -0.201193,0.46439 -0.47818,0.46439 -0.504363,0 -0.509873,-0.37344 -0.509873,-0.5264 h 0.23151 c 0,0.18052 0.05099,0.34451 0.278363,0.34451 0.07442,0 0.24667,-0.0358 0.24667,-0.24667 0,-0.19982 -0.183279,-0.24116 -0.363803,-0.30179 -0.180523,-0.062 -0.365181,-0.11438 -0.365181,-0.42168 0,-0.27699 0.216352,-0.41066 0.474045,-0.41066 0.431327,0 0.447862,0.29903 0.450621,0.47405 z m 0,0"
         id="path2883" />
      <path
         style="fill:#5c5178;fill-opacity:1;fill-rule:nonzero;stroke:none;stroke-width:0.352778"
         d="m 75.114104,131.01679 c 0.216356,0 0.271477,-0.22738 0.271477,-0.61047 0,-0.3266 -0.05512,-0.55397 -0.271477,-0.55397 -0.25769,0 -0.299032,0.24391 -0.299032,0.58153 0,0.28939 0.04961,0.58291 0.299032,0.58291 m -0.518142,-1.32567 h 0.220486 v 0.18327 h 0.0069 c 0.0303,-0.11024 0.159851,-0.22186 0.321081,-0.22186 0.351402,0 0.48507,0.31419 0.48507,0.75379 0,0.33899 -0.100595,0.8089 -0.48507,0.8089 -0.133667,0 -0.257693,-0.0799 -0.311436,-0.2067 h -0.0041 v 0.65595 h -0.23289 z m 0,0"
         id="path2885" />
      <path
         style="fill:#5c5178;fill-opacity:1;fill-rule:nonzero;stroke:none;stroke-width:0.352778"
         d="m 76.027746,129.69112 h 0.232886 v 1.48552 h -0.232886 z m 0,-0.49334 h 0.232886 v 0.26596 h -0.232886 z m 0,0"
         id="path2887" />
      <path
         style="fill:#5c5178;fill-opacity:1;fill-rule:nonzero;stroke:none;stroke-width:0.352778"
         d="m 76.714008,129.69112 h 0.23289 v 0.22186 h 0.0069 c 0.06615,-0.14056 0.15434,-0.26045 0.321081,-0.26045 0.04686,0 0.07993,0.006 0.101977,0.0165 v 0.22737 c -0.02205,-0.003 -0.04961,-0.011 -0.124026,-0.011 -0.117133,0 -0.305922,0.1061 -0.305922,0.35277 v 0.93845 h -0.232889 z m 0,0"
         id="path2889" />
      <path
         style="fill:#5c5178;fill-opacity:1;fill-rule:nonzero;stroke:none;stroke-width:0.352778"
         d="m 78.402106,130.27954 v -0.0813 c 0,-0.16536 -0.05237,-0.36242 -0.257693,-0.36242 -0.243914,0 -0.271473,0.29903 -0.271473,0.38723 v 0.0565 z m -0.537435,0.18328 c 0,0.226 0,0.57051 0.285252,0.57051 0.221866,0 0.252183,-0.23289 0.252183,-0.34451 h 0.232887 c 0,0.15847 -0.0937,0.5264 -0.498849,0.5264 -0.363802,0 -0.515388,-0.2508 -0.515388,-0.76205 0,-0.37069 0.07166,-0.80064 0.529167,-0.80064 0.454755,0 0.496094,0.39688 0.496094,0.7152 v 0.0951 z m 0,0"
         id="path2891" />
      <path
         style="fill:#000000;fill-opacity:1;fill-rule:nonzero;stroke:none;stroke-width:0.352778"
         d="m 80.299663,129.15919 h 0.183278 l -0.64354,2.05603 h -0.183283 z m 0,0"
         id="path2893" />
      <path
         style="fill:#5c5178;fill-opacity:1;fill-rule:nonzero;stroke:none;stroke-width:0.352778"
         d="m 81.717664,130.43388 h 0.531925 l -0.252183,-0.95636 h -0.0055 z m 0.119891,-1.2361 h 0.326595 l 0.531922,1.98024 h -0.254935 l -0.140561,-0.54432 h -0.63252 l -0.146071,0.54432 h -0.256318 z m 0,0"
         id="path2895" />
      <path
         style="fill:#5c5178;fill-opacity:1;fill-rule:nonzero;stroke:none;stroke-width:0.352778"
         d="m 83.4223,131.01679 c 0.25769,0 0.299032,-0.24391 0.299032,-0.58291 0,-0.28801 -0.04961,-0.58153 -0.299032,-0.58153 -0.216355,0 -0.271477,0.22737 -0.271477,0.58153 0,0.35553 0.05512,0.58291 0.271477,0.58291 m 0.518142,0.15985 h -0.221865 v -0.1819 h -0.0055 c -0.0303,0.11024 -0.16123,0.22048 -0.32108,0.22048 -0.352778,0 -0.48507,-0.31281 -0.48507,-0.78134 0,-0.31006 0.04961,-0.78135 0.467156,-0.78135 0.133667,0 0.275607,0.0813 0.32797,0.20808 h 0.0055 v -0.66283 h 0.23289 z m 0,0"
         id="path2897" />
      <path
         style="fill:#5c5178;fill-opacity:1;fill-rule:nonzero;stroke:none;stroke-width:0.352778"
         d="m 84.256013,129.69112 h 0.254934 l 0.276987,1.192 h 0.0055 l 0.276987,-1.192 h 0.254938 l -0.402389,1.48552 h -0.265959 z m 0,0"
         id="path2899" />
      <path
         style="fill:#5c5178;fill-opacity:1;fill-rule:nonzero;stroke:none;stroke-width:0.352778"
         d="m 86.323068,130.36773 c -0.08682,0.0909 -0.290766,0.11162 -0.396875,0.17501 -0.07442,0.0469 -0.112998,0.10473 -0.112998,0.23565 0,0.14883 0.05237,0.25494 0.209462,0.25494 0.152961,0 0.300411,-0.13092 0.300411,-0.2825 z m -0.717956,-0.22737 c 0,-0.33762 0.144692,-0.48783 0.498849,-0.48783 0.451997,0 0.451997,0.27148 0.451997,0.42719 v 0.8282 c 0,0.062 0,0.11989 0.07166,0.11989 l 0.05512,-0.0138 v 0.16536 c -0.01655,0.003 -0.07717,0.0138 -0.135047,0.0138 -0.08957,0 -0.199817,0 -0.210841,-0.19017 h -0.0055 c -0.07442,0.13229 -0.219106,0.21359 -0.358291,0.21359 -0.276984,0 -0.403765,-0.16674 -0.403765,-0.4327 0,-0.20809 0.08819,-0.35278 0.279742,-0.41065 l 0.312815,-0.0937 c 0.169499,-0.0537 0.169499,-0.1006 0.169499,-0.22462 0,-0.13918 -0.08406,-0.21911 -0.2384,-0.21911 -0.254938,0 -0.254938,0.2384 -0.254938,0.29077 v 0.0138 z m 0,0"
         id="path2901" />
      <path
         style="fill:#5c5178;fill-opacity:1;fill-rule:nonzero;stroke:none;stroke-width:0.352778"
         d="m 87.006575,129.69112 h 0.221866 v 0.17501 h 0.0055 c 0.06064,-0.13505 0.216351,-0.2136 0.359667,-0.2136 0.391365,0 0.391365,0.29628 0.391365,0.47129 v 1.05282 h -0.23289 v -1.02526 c 0,-0.113 -0.0083,-0.29903 -0.219107,-0.29903 -0.124022,0 -0.293521,0.0827 -0.293521,0.29903 v 1.02526 h -0.23289 z m 0,0"
         id="path2903" />
      <path
         style="fill:#5c5178;fill-opacity:1;fill-rule:nonzero;stroke:none;stroke-width:0.352778"
         d="m 89.131511,130.14311 c 0,-0.14331 -0.05788,-0.3073 -0.235645,-0.3073 -0.143316,0 -0.290767,0.0717 -0.290767,0.61461 0,0.1943 0.0028,0.58291 0.282498,0.58291 0.199817,0 0.243914,-0.21085 0.243914,-0.37208 h 0.23289 c 0,0.23565 -0.115757,0.55397 -0.487829,0.55397 -0.362422,0 -0.515383,-0.2508 -0.515383,-0.76205 0,-0.37069 0.07304,-0.80064 0.529166,-0.80064 0.405141,0 0.474046,0.31833 0.474046,0.49058 z m 0,0"
         id="path2905" />
      <path
         style="fill:#5c5178;fill-opacity:1;fill-rule:nonzero;stroke:none;stroke-width:0.352778"
         d="m 90.472342,130.27954 v -0.0813 c 0,-0.16536 -0.05237,-0.36242 -0.257694,-0.36242 -0.243911,0 -0.271473,0.29903 -0.271473,0.38723 v 0.0565 z m -0.537436,0.18328 c 0,0.226 0,0.57051 0.285256,0.57051 0.221862,0 0.25218,-0.23289 0.25218,-0.34451 h 0.232889 c 0,0.15847 -0.09371,0.5264 -0.498852,0.5264 -0.362423,0 -0.515384,-0.2508 -0.515384,-0.76205 0,-0.37069 0.07166,-0.80064 0.529167,-0.80064 0.454752,0 0.496094,0.39688 0.496094,0.7152 v 0.0951 z m 0,0"
         id="path2907" />
      <path
         style="fill:#000000;fill-opacity:1;fill-rule:nonzero;stroke:none;stroke-width:0.352778"
         d="m 92.369902,129.15919 h 0.183278 l -0.643544,2.05603 h -0.181903 z m 0,0"
         id="path2909" />
      <path
         style="fill:#5c5178;fill-opacity:1;fill-rule:nonzero;stroke:none;stroke-width:0.352778"
         d="m 93.789278,130.43388 h 0.531926 l -0.252184,-0.95636 h -0.0055 z m 0.118512,-1.2361 h 0.326595 l 0.533301,1.98024 h -0.256314 l -0.140561,-0.54432 h -0.63252 l -0.146071,0.54432 h -0.254938 z m 0,0"
         id="path2911" />
      <path
         style="fill:#5c5178;fill-opacity:1;fill-rule:nonzero;stroke:none;stroke-width:0.352778"
         d="m 95.739204,130.14311 c 0,-0.14331 -0.05788,-0.3073 -0.235644,-0.3073 -0.143316,0 -0.290767,0.0717 -0.290767,0.61461 0,0.1943 0.0028,0.58291 0.282497,0.58291 0.199817,0 0.243914,-0.21085 0.243914,-0.37208 h 0.232887 c 0,0.23565 -0.117133,0.55397 -0.487825,0.55397 -0.363802,0 -0.515387,-0.2508 -0.515387,-0.76205 0,-0.37069 0.07166,-0.80064 0.529167,-0.80064 0.405144,0 0.474045,0.31833 0.474045,0.49058 z m 0,0"
         id="path2913" />
      <path
         style="fill:#5c5178;fill-opacity:1;fill-rule:nonzero;stroke:none;stroke-width:0.352778"
         d="m 96.348296,129.19778 h 0.23289 v 0.66283 h 0.0055 c 0.06063,-0.12126 0.22462,-0.20808 0.356912,-0.20808 0.383095,0 0.383095,0.29628 0.383095,0.47129 v 1.0542 h -0.232889 v -1.02664 c 0,-0.113 -0.0083,-0.29903 -0.219107,-0.29903 -0.124023,0 -0.293522,0.0827 -0.293522,0.29903 v 1.02664 h -0.23289 z m 0,0"
         id="path2915" />
      <path
         style="fill:#5c5178;fill-opacity:1;fill-rule:nonzero;stroke:none;stroke-width:0.352778"
         d="m 97.780077,129.69112 h 0.23289 v 1.48552 h -0.23289 z m 0,-0.49334 h 0.23289 v 0.26596 h -0.23289 z m 0,0"
         id="path2917" />
      <path
         style="fill:#5c5178;fill-opacity:1;fill-rule:nonzero;stroke:none;stroke-width:0.352778"
         d="m 99.199457,130.27954 v -0.0813 c 0,-0.16536 -0.05237,-0.36242 -0.257693,-0.36242 -0.243911,0 -0.271474,0.29903 -0.271474,0.38723 v 0.0565 z m -0.537436,0.18328 c 0,0.226 0,0.57051 0.285256,0.57051 0.221862,0 0.25218,-0.23289 0.25218,-0.34451 h 0.23289 c 0,0.15847 -0.09508,0.5264 -0.498849,0.5264 -0.363802,0 -0.515387,-0.2508 -0.515387,-0.76205 0,-0.37069 0.07166,-0.80064 0.529166,-0.80064 0.454752,0 0.496094,0.39688 0.496094,0.7152 v 0.0951 z m 0,0"
         id="path2919" />
      <path
         style="fill:#5c5178;fill-opacity:1;fill-rule:nonzero;stroke:none;stroke-width:0.352778"
         d="m 99.70933,129.69112 h 0.254939 l 0.276991,1.192 h 0.005 l 0.27699,-1.192 h 0.25493 l -0.40238,1.48552 h -0.26597 z m 0,0"
         id="path2921" />
      <path
         style="fill:#5c5178;fill-opacity:1;fill-rule:nonzero;stroke:none;stroke-width:0.352778"
         d="m 101.826,130.27954 v -0.0813 c 0,-0.16536 -0.0537,-0.36242 -0.25769,-0.36242 -0.24392,0 -0.27148,0.29903 -0.27148,0.38723 v 0.0565 z m -0.53744,0.18328 c 0,0.226 0,0.57051 0.28526,0.57051 0.22186,0 0.25218,-0.23289 0.25218,-0.34451 h 0.23289 c 0,0.15847 -0.0951,0.5264 -0.49885,0.5264 -0.3638,0 -0.51539,-0.2508 -0.51539,-0.76205 0,-0.37069 0.0717,-0.80064 0.52917,-0.80064 0.45475,0 0.49609,0.39688 0.49609,0.7152 v 0.0951 z m 0,0"
         id="path2923" />
      <path
         style="fill:#5c5178;fill-opacity:1;fill-rule:nonzero;stroke:none;stroke-width:0.352778"
         d="m 100.86275,110.90708 v -0.12816 h 0.91777 v 0.12816 h -0.38309 v 1.01974 h -0.15296 v -1.01974 z m 0,0"
         id="path2925" />
      <path
         style="fill:#5c5178;fill-opacity:1;fill-rule:nonzero;stroke:none;stroke-width:0.352778"
         d="m 102.11814,110.77892 0.36243,0.96463 0.36242,-0.96463 h 0.20946 v 1.14653 h -0.14469 v -0.95361 h -0.003 l -0.3583,0.95361 h -0.13091 l -0.35829,-0.95361 h -0.003 v 0.95361 h -0.14469 v -1.14653 z m 0,0"
         id="path2927" />
    </g>
  </g>
</svg>
